<svg id="svg" version="1.1" xmlns="http://www.w3.org/2000/svg" xmlns:xlink="http://www.w3.org/1999/xlink" width="400" height="400" viewBox="0, 0, 400,400"><g id="svgg"><path id="path0" d="M192.958 117.667 C 192.845 117.850,196.723 118.000,201.576 118.000 C 206.429 118.000,210.400 117.848,210.400 117.661 C 210.400 117.223,193.230 117.229,192.958 117.667 M301.000 117.600 C 300.864 117.820,299.784 118.000,298.600 118.000 C 297.416 118.000,296.336 118.180,296.200 118.400 C 296.064 118.620,295.344 118.800,294.600 118.800 C 293.856 118.800,293.136 118.980,293.000 119.200 C 292.864 119.420,292.054 119.600,291.200 119.600 C 290.346 119.600,289.536 119.780,289.400 120.000 C 289.264 120.220,288.634 120.400,288.000 120.400 C 287.366 120.400,286.736 120.580,286.600 120.800 C 286.464 121.020,285.924 121.200,285.400 121.200 C 284.876 121.200,284.336 121.380,284.200 121.600 C 284.064 121.820,283.333 122.000,282.576 122.000 C 281.819 122.000,281.200 122.147,281.200 122.326 C 281.200 122.718,278.134 124.400,277.417 124.400 C 276.684 124.400,271.360 127.196,268.582 129.040 C 267.272 129.910,265.693 130.878,265.074 131.192 C 264.455 131.506,263.421 132.266,262.778 132.881 C 262.134 133.497,261.434 134.000,261.223 134.000 C 261.011 134.000,259.923 134.915,258.805 136.033 L 256.771 138.067 255.248 136.733 C 252.775 134.568,252.014 134.000,251.586 134.000 C 250.786 134.000,252.479 135.949,253.626 136.349 C 254.272 136.574,254.800 137.038,254.800 137.379 C 254.800 137.721,254.978 138.000,255.195 138.000 C 255.944 138.000,264.555 147.169,266.867 150.428 C 267.559 151.403,268.627 152.853,269.241 153.650 C 269.855 154.448,270.705 155.708,271.130 156.450 C 271.555 157.193,272.572 158.970,273.391 160.400 C 274.211 161.830,275.236 163.897,275.671 164.993 C 276.106 166.089,276.872 167.889,277.373 168.993 C 277.874 170.097,278.503 171.720,278.770 172.600 C 279.037 173.480,279.426 174.560,279.633 175.000 C 279.973 175.719,281.218 180.849,282.498 186.800 C 283.138 189.774,283.138 209.826,282.498 212.800 C 280.576 221.736,278.354 229.391,277.214 231.000 C 277.058 231.220,276.509 232.480,275.994 233.800 C 274.855 236.719,273.278 239.639,270.726 243.555 C 269.667 245.181,268.800 246.591,268.800 246.688 C 268.800 247.680,257.648 260.000,256.749 260.000 C 255.906 260.000,256.558 261.074,258.609 263.060 C 259.824 264.237,260.960 265.200,261.134 265.200 C 261.307 265.200,261.798 265.520,262.225 265.911 C 262.651 266.302,263.630 267.062,264.400 267.600 C 265.170 268.138,266.149 268.898,266.575 269.289 C 267.002 269.680,267.565 270.000,267.826 270.000 C 268.088 270.000,268.529 270.273,268.806 270.607 C 269.083 270.941,269.960 271.517,270.755 271.887 C 271.550 272.256,272.290 272.658,272.400 272.779 C 272.827 273.251,274.419 274.000,274.995 274.000 C 275.328 274.000,275.600 274.180,275.600 274.400 C 275.600 274.620,275.960 274.800,276.400 274.800 C 276.840 274.800,277.200 274.980,277.200 275.200 C 277.200 275.420,277.549 275.600,277.976 275.600 C 278.403 275.600,278.864 275.780,279.000 276.000 C 279.136 276.220,279.599 276.400,280.029 276.400 C 280.459 276.400,281.168 276.580,281.605 276.800 C 282.042 277.020,282.758 277.380,283.195 277.600 C 283.632 277.820,284.262 278.000,284.595 278.000 C 284.928 278.000,285.200 278.180,285.200 278.400 C 285.200 278.620,285.819 278.800,286.576 278.800 C 287.333 278.800,288.064 278.980,288.200 279.200 C 288.336 279.420,288.977 279.600,289.624 279.600 C 290.271 279.600,290.800 279.780,290.800 280.000 C 290.800 280.220,291.509 280.400,292.376 280.400 C 293.243 280.400,294.064 280.580,294.200 280.800 C 294.336 281.020,295.596 281.200,297.000 281.200 C 298.404 281.200,299.664 281.380,299.800 281.600 C 299.942 281.830,302.063 282.000,304.800 282.000 C 307.709 282.000,309.654 282.164,309.814 282.423 C 310.090 282.869,313.384 282.749,313.857 282.276 C 314.009 282.124,316.163 282.000,318.643 282.000 C 321.218 282.000,323.259 281.828,323.400 281.600 C 323.536 281.380,324.706 281.200,326.000 281.200 C 327.294 281.200,328.464 281.020,328.600 280.800 C 328.736 280.580,329.546 280.400,330.400 280.400 C 331.254 280.400,332.064 280.220,332.200 280.000 C 332.336 279.780,332.876 279.600,333.400 279.600 C 333.924 279.600,334.464 279.420,334.600 279.200 C 334.736 278.980,335.557 278.800,336.424 278.800 C 337.291 278.800,338.000 278.620,338.000 278.400 C 338.000 278.180,338.355 278.000,338.788 278.000 C 339.221 278.000,340.217 277.640,341.000 277.200 C 341.783 276.760,342.768 276.400,343.189 276.400 C 343.609 276.400,344.064 276.220,344.200 276.000 C 344.336 275.780,344.797 275.600,345.224 275.600 C 345.651 275.600,346.000 275.420,346.000 275.200 C 346.000 274.980,346.360 274.800,346.800 274.800 C 347.240 274.800,347.600 274.620,347.600 274.400 C 347.600 274.180,347.960 274.000,348.400 274.000 C 348.840 274.000,349.200 273.820,349.200 273.600 C 349.200 273.380,349.560 273.200,350.000 273.200 C 350.440 273.200,350.800 273.020,350.800 272.800 C 350.800 272.580,351.145 272.400,351.567 272.400 C 351.988 272.400,352.393 272.255,352.467 272.077 C 352.659 271.609,356.265 269.200,356.772 269.200 C 357.007 269.200,357.200 269.020,357.200 268.800 C 357.200 268.580,357.488 268.400,357.840 268.400 C 358.191 268.400,358.983 267.860,359.600 267.200 C 360.217 266.540,360.917 266.000,361.157 266.000 C 361.397 266.000,362.109 265.460,362.740 264.800 C 363.371 264.140,364.092 263.600,364.343 263.600 C 364.848 263.600,374.000 254.401,374.000 253.893 C 374.000 253.719,374.900 252.652,376.000 251.523 C 377.100 250.393,378.000 249.244,378.000 248.968 C 378.000 248.692,378.149 248.407,378.330 248.333 C 378.794 248.146,382.800 242.127,382.800 241.618 C 382.800 241.388,382.980 241.200,383.200 241.200 C 383.420 241.200,383.600 240.840,383.600 240.400 C 383.600 239.960,383.780 239.600,384.000 239.600 C 384.220 239.600,384.400 239.366,384.400 239.080 C 384.400 238.344,385.341 236.407,385.700 236.403 C 385.865 236.401,386.000 236.040,386.000 235.600 C 386.000 235.160,386.180 234.800,386.400 234.800 C 386.620 234.800,386.800 234.535,386.800 234.212 C 386.800 233.889,387.160 232.983,387.600 232.200 C 388.040 231.417,388.400 230.421,388.400 229.988 C 388.400 229.555,388.580 229.200,388.800 229.200 C 389.020 229.200,389.200 228.671,389.200 228.024 C 389.200 227.377,389.380 226.736,389.600 226.600 C 389.820 226.464,390.000 225.924,390.000 225.400 C 390.000 224.876,390.180 224.336,390.400 224.200 C 390.620 224.064,390.800 223.513,390.800 222.976 C 390.800 222.439,390.963 222.000,391.161 222.000 C 391.360 222.000,391.623 221.145,391.746 220.100 C 392.220 216.063,392.495 214.586,392.841 214.220 C 393.038 214.011,393.200 212.742,393.200 211.400 C 393.200 210.058,393.387 208.773,393.615 208.545 C 394.419 207.741,393.631 185.517,392.766 184.620 C 392.565 184.411,392.400 183.646,392.400 182.920 C 392.400 182.194,392.238 181.600,392.040 181.600 C 391.842 181.600,391.581 180.835,391.459 179.900 C 391.034 176.640,390.709 175.191,390.356 174.973 C 390.160 174.852,390.000 174.401,390.000 173.971 C 390.000 173.216,389.856 172.826,388.862 170.905 C 388.608 170.413,388.400 169.736,388.400 169.400 C 388.400 169.064,388.192 168.387,387.938 167.895 C 386.967 166.018,386.800 165.593,386.800 165.005 C 386.800 164.672,386.665 164.399,386.500 164.397 C 386.149 164.393,385.200 162.463,385.200 161.754 C 385.200 161.486,385.065 161.207,384.900 161.133 C 384.630 161.013,383.422 158.911,382.240 156.503 C 381.998 156.010,381.665 155.605,381.500 155.603 C 381.335 155.601,381.200 155.328,381.200 154.996 C 381.200 154.664,380.660 153.828,380.000 153.137 C 379.340 152.446,378.800 151.728,378.800 151.541 C 378.800 151.354,378.080 150.459,377.200 149.552 C 376.320 148.645,375.600 147.740,375.600 147.541 C 375.600 147.031,363.186 134.804,362.644 134.780 C 362.400 134.770,361.480 134.051,360.600 133.183 C 359.720 132.316,358.777 131.604,358.503 131.603 C 358.230 131.601,357.782 131.240,357.507 130.800 C 357.232 130.360,356.731 130.000,356.392 130.000 C 356.054 130.000,355.517 129.640,355.200 129.200 C 354.883 128.760,354.303 128.400,353.912 128.400 C 353.520 128.400,353.200 128.220,353.200 128.000 C 353.200 127.780,352.922 127.600,352.583 127.600 C 352.244 127.600,351.580 127.240,351.108 126.800 C 350.636 126.360,349.833 126.000,349.325 126.000 C 348.816 126.000,348.399 125.865,348.397 125.700 C 348.393 125.341,346.456 124.400,345.720 124.400 C 345.434 124.400,345.200 124.220,345.200 124.000 C 345.200 123.780,344.928 123.600,344.595 123.600 C 344.262 123.600,343.632 123.420,343.195 123.200 C 342.758 122.980,342.042 122.620,341.605 122.400 C 341.168 122.180,340.459 122.000,340.029 122.000 C 339.599 122.000,339.136 121.820,339.000 121.600 C 338.864 121.380,338.313 121.200,337.776 121.200 C 337.239 121.200,336.800 121.020,336.800 120.800 C 336.800 120.580,336.386 120.400,335.880 120.400 C 335.374 120.400,334.789 120.238,334.580 120.041 C 334.371 119.844,333.435 119.574,332.500 119.441 C 328.301 118.846,327.582 118.694,327.374 118.358 C 327.252 118.161,326.184 118.000,325.000 118.000 C 323.816 118.000,322.736 117.820,322.600 117.600 C 322.445 117.350,318.404 117.200,311.800 117.200 C 305.196 117.200,301.155 117.350,301.000 117.600 M187.017 118.372 C 186.891 118.577,186.967 118.856,187.187 118.992 C 187.730 119.328,190.400 118.799,190.400 118.355 C 190.400 117.882,187.311 117.897,187.017 118.372 M213.600 118.487 C 213.600 118.659,214.151 118.800,214.824 118.800 C 215.525 118.800,215.943 118.632,215.804 118.406 C 215.522 117.950,213.600 118.021,213.600 118.487 M183.800 119.200 C 183.660 119.427,183.996 119.600,184.576 119.600 C 185.139 119.600,185.600 119.420,185.600 119.200 C 185.600 118.980,185.251 118.800,184.824 118.800 C 184.397 118.800,183.936 118.980,183.800 119.200 M217.200 119.278 C 217.200 119.455,217.920 119.600,218.800 119.600 C 219.680 119.600,220.400 119.413,220.400 119.184 C 220.400 118.949,219.702 118.809,218.800 118.862 C 217.920 118.914,217.200 119.101,217.200 119.278 M179.792 120.013 C 179.660 120.226,179.225 120.400,178.825 120.400 C 178.425 120.400,177.864 120.681,177.579 121.025 C 177.122 121.576,177.200 121.616,178.230 121.363 C 178.874 121.205,179.460 120.924,179.533 120.738 C 179.607 120.552,180.372 120.400,181.233 120.400 C 182.095 120.400,182.800 120.249,182.800 120.065 C 182.800 119.591,180.082 119.544,179.792 120.013 M221.000 120.000 C 221.136 120.220,221.777 120.400,222.424 120.400 C 223.071 120.400,223.600 120.220,223.600 120.000 C 223.600 119.780,222.959 119.600,222.176 119.600 C 221.329 119.600,220.853 119.762,221.000 120.000 M224.000 120.800 C 224.000 121.020,224.630 121.200,225.400 121.200 C 227.220 121.200,227.219 120.630,225.399 120.500 C 224.630 120.445,224.000 120.580,224.000 120.800 M174.877 121.630 C 174.956 121.867,175.151 122.046,175.310 122.030 C 175.470 122.014,175.870 122.000,176.200 122.000 C 176.530 122.000,176.800 121.820,176.800 121.600 C 176.800 121.380,176.335 121.200,175.767 121.200 C 175.198 121.200,174.798 121.394,174.877 121.630 M227.028 121.554 C 226.908 121.749,227.262 121.995,227.814 122.101 C 228.814 122.292,229.411 121.944,228.922 121.456 C 228.546 121.079,227.281 121.145,227.028 121.554 M171.000 122.923 C 168.961 124.010,169.027 123.960,169.294 124.228 C 169.647 124.580,172.532 123.607,173.623 122.769 L 174.600 122.018 173.600 122.044 C 173.050 122.059,171.880 122.454,171.000 122.923 M229.460 122.273 C 229.145 122.588,231.370 123.604,232.346 123.591 C 232.837 123.584,232.751 123.387,232.000 122.800 C 230.977 122.000,229.947 121.786,229.460 122.273 M166.600 124.800 C 166.464 125.020,165.913 125.200,165.376 125.200 C 164.839 125.200,164.400 125.380,164.400 125.600 C 164.400 125.820,164.080 126.000,163.688 126.000 C 163.297 126.000,162.717 126.360,162.400 126.800 C 162.083 127.240,161.503 127.600,161.112 127.600 C 160.720 127.600,160.400 127.780,160.400 128.000 C 160.400 128.220,160.152 128.400,159.849 128.400 C 159.546 128.400,159.071 128.673,158.794 129.007 C 158.517 129.341,157.685 129.902,156.945 130.253 C 156.205 130.604,155.600 131.051,155.600 131.246 C 155.600 131.441,155.357 131.600,155.059 131.600 C 154.762 131.600,153.954 132.140,153.263 132.800 C 152.572 133.460,151.869 134.000,151.699 134.000 C 151.004 134.000,148.304 136.694,148.733 136.959 C 148.979 137.111,149.969 136.508,150.935 135.617 C 151.900 134.728,152.863 134.000,153.075 134.000 C 153.287 134.000,153.894 133.538,154.424 132.974 C 154.954 132.410,155.951 131.681,156.640 131.354 C 157.329 131.027,158.269 130.409,158.729 129.980 C 159.190 129.551,159.812 129.200,160.112 129.200 C 160.412 129.200,161.365 128.665,162.229 128.011 C 163.093 127.357,163.967 126.817,164.172 126.811 C 164.880 126.790,168.400 125.056,168.400 124.729 C 168.400 124.261,166.896 124.320,166.600 124.800 M235.200 124.714 C 235.200 125.199,237.555 126.475,237.973 126.217 C 238.178 126.090,238.458 126.170,238.596 126.393 C 238.734 126.617,239.197 126.800,239.624 126.800 C 240.051 126.800,240.400 126.980,240.400 127.200 C 240.400 127.420,240.670 127.600,241.000 127.600 C 241.330 127.600,241.600 127.759,241.600 127.954 C 241.600 128.149,242.205 128.596,242.945 128.947 C 243.685 129.298,244.501 129.839,244.758 130.150 C 245.016 130.460,245.806 130.950,246.513 131.238 C 247.221 131.526,248.277 132.266,248.860 132.881 C 249.953 134.034,250.992 134.383,250.703 133.500 C 250.498 132.872,246.968 130.158,245.500 129.498 C 244.895 129.227,244.400 128.869,244.400 128.702 C 244.400 128.536,244.164 128.400,243.875 128.400 C 243.587 128.400,242.964 128.040,242.492 127.600 C 242.020 127.160,241.356 126.800,241.017 126.800 C 240.678 126.800,240.400 126.620,240.400 126.400 C 240.400 126.180,239.984 126.000,239.475 126.000 C 238.967 126.000,238.164 125.640,237.692 125.200 C 236.851 124.416,235.200 124.094,235.200 124.714 M148.800 262.984 C 148.800 263.693,150.347 265.200,151.075 265.200 C 151.364 265.200,151.600 265.350,151.600 265.532 C 151.600 265.715,152.095 266.119,152.700 266.430 C 153.305 266.740,154.072 267.266,154.404 267.597 C 155.312 268.502,156.800 269.261,156.800 268.819 C 156.800 268.310,155.170 266.800,154.621 266.800 C 154.385 266.800,153.968 266.440,153.693 266.000 C 153.418 265.560,152.960 265.200,152.675 265.200 C 152.390 265.200,151.546 264.570,150.800 263.800 C 149.333 262.286,148.800 262.069,148.800 262.984 M253.706 263.392 C 253.434 263.701,252.896 264.131,252.509 264.347 C 252.123 264.563,251.931 264.865,252.084 265.017 C 252.373 265.306,254.739 263.622,254.778 263.100 C 254.813 262.624,254.245 262.779,253.706 263.392 M250.800 265.532 C 250.800 265.715,250.305 266.120,249.700 266.432 C 249.095 266.745,248.261 267.306,247.846 267.680 C 247.431 268.054,246.475 268.653,245.722 269.010 C 244.968 269.368,244.253 269.917,244.133 270.230 C 244.013 270.544,243.664 270.800,243.357 270.800 C 243.051 270.800,242.800 270.980,242.800 271.200 C 242.800 271.898,244.692 271.079,245.313 270.113 C 245.485 269.845,246.250 269.329,247.013 268.967 C 247.776 268.605,248.400 268.149,248.400 267.954 C 248.400 267.759,248.625 267.594,248.900 267.587 C 249.881 267.563,252.157 265.200,251.200 265.200 C 250.980 265.200,250.800 265.350,250.800 265.532 M158.000 269.991 C 158.550 270.416,159.450 270.992,160.000 271.270 C 160.550 271.548,161.752 272.276,162.672 272.888 C 163.592 273.499,164.616 274.000,164.948 274.000 C 165.281 274.000,165.664 274.180,165.800 274.400 C 165.936 274.620,166.397 274.800,166.824 274.800 C 167.251 274.800,167.600 274.936,167.600 275.102 C 167.600 275.269,168.185 275.640,168.900 275.929 C 169.615 276.217,170.513 276.621,170.895 276.826 C 171.277 277.032,171.864 277.200,172.200 277.200 C 172.536 277.200,173.168 277.380,173.605 277.600 C 174.042 277.820,174.758 278.180,175.195 278.400 C 175.632 278.620,176.352 278.800,176.795 278.800 C 177.238 278.800,177.600 278.620,177.600 278.400 C 177.600 278.180,177.251 278.000,176.824 278.000 C 176.397 278.000,175.936 277.820,175.800 277.600 C 175.664 277.380,175.113 277.200,174.576 277.200 C 174.039 277.200,173.600 277.020,173.600 276.800 C 173.600 276.580,172.985 276.400,172.233 276.400 C 171.482 276.400,170.807 276.259,170.733 276.087 C 170.472 275.473,167.538 274.000,166.577 274.000 C 166.040 274.000,165.600 273.820,165.600 273.600 C 165.600 273.380,165.322 273.200,164.983 273.200 C 164.644 273.200,163.980 272.840,163.508 272.400 C 163.036 271.960,162.338 271.600,161.958 271.600 C 161.578 271.600,161.207 271.465,161.133 271.300 C 160.867 270.701,158.414 269.200,157.716 269.209 C 157.123 269.216,157.172 269.351,158.000 269.991 M240.000 272.400 C 239.450 272.830,238.739 273.186,238.420 273.191 C 237.969 273.198,237.947 273.307,238.320 273.680 C 238.693 274.053,238.907 274.053,239.280 273.680 C 239.544 273.416,240.002 273.200,240.297 273.200 C 240.592 273.200,241.220 272.840,241.692 272.400 C 242.903 271.272,241.442 271.272,240.000 272.400 M235.300 274.488 C 234.805 274.727,234.400 275.075,234.400 275.261 C 234.400 275.448,234.040 275.600,233.600 275.600 C 233.160 275.600,232.800 275.780,232.800 276.000 C 232.800 276.658,234.131 276.437,235.200 275.600 C 235.750 275.170,236.504 274.814,236.876 274.809 C 237.248 274.804,237.664 274.620,237.800 274.400 C 238.125 273.874,236.451 273.933,235.300 274.488 M230.000 276.800 C 230.000 277.020,229.651 277.200,229.224 277.200 C 228.797 277.200,228.336 277.380,228.200 277.600 C 228.064 277.820,227.483 278.000,226.910 278.000 C 225.657 278.000,226.027 278.510,227.415 278.695 C 227.957 278.768,228.400 278.641,228.400 278.414 C 228.400 278.186,228.749 278.000,229.176 278.000 C 229.603 278.000,230.064 277.820,230.200 277.600 C 230.336 277.380,230.786 277.200,231.200 277.200 C 231.614 277.200,232.064 277.020,232.200 276.800 C 232.344 276.567,231.937 276.400,231.224 276.400 C 230.551 276.400,230.000 276.580,230.000 276.800 M224.000 278.683 C 223.670 278.780,223.040 279.018,222.600 279.213 C 222.160 279.407,221.350 279.633,220.800 279.713 C 219.904 279.844,219.878 279.894,220.553 280.193 C 221.010 280.395,221.598 280.344,222.048 280.063 C 222.455 279.808,223.231 279.600,223.771 279.600 C 224.753 279.600,225.484 279.009,224.907 278.682 C 224.738 278.586,224.330 278.587,224.000 278.683 M178.600 279.200 C 178.736 279.420,179.366 279.600,180.000 279.600 C 180.634 279.600,181.275 279.797,181.424 280.038 C 181.573 280.280,182.202 280.402,182.823 280.311 C 183.485 280.214,183.920 280.322,183.876 280.573 C 183.832 280.821,184.717 281.052,185.988 281.124 C 187.191 281.192,188.391 281.427,188.655 281.646 C 188.918 281.864,190.607 282.008,192.408 281.964 C 194.209 281.921,195.799 282.047,195.941 282.244 C 196.083 282.442,198.497 282.613,201.304 282.625 C 207.756 282.653,207.419 282.138,200.800 281.855 C 198.050 281.738,194.495 281.452,192.900 281.221 C 191.305 280.989,188.695 280.612,187.100 280.383 C 181.567 279.588,181.194 279.514,180.974 279.158 C 180.852 278.961,180.213 278.800,179.553 278.800 C 178.855 278.800,178.456 278.967,178.600 279.200 M216.600 280.800 C 216.736 281.020,217.276 281.200,217.800 281.200 C 218.324 281.200,218.864 281.020,219.000 280.800 C 219.147 280.561,218.663 280.400,217.800 280.400 C 216.937 280.400,216.453 280.561,216.600 280.800 M208.190 281.617 C 208.018 281.895,209.073 282.011,211.366 281.965 C 213.255 281.928,214.800 281.741,214.800 281.549 C 214.800 281.050,208.500 281.114,208.190 281.617 " stroke="none" fill="#d334e4" fill-rule="evenodd"></path><path id="path1" d="M87.800 117.600 C 87.664 117.820,86.314 118.000,84.800 118.000 C 83.286 118.000,81.936 118.180,81.800 118.400 C 81.664 118.620,80.753 118.800,79.776 118.800 C 78.799 118.800,78.000 118.980,78.000 119.200 C 78.000 119.420,77.201 119.600,76.224 119.600 C 75.247 119.600,74.336 119.780,74.200 120.000 C 74.064 120.220,73.423 120.400,72.776 120.400 C 72.129 120.400,71.600 120.580,71.600 120.800 C 71.600 121.020,71.060 121.200,70.400 121.200 C 69.740 121.200,69.200 121.380,69.200 121.600 C 69.200 121.820,68.660 122.000,68.000 122.000 C 67.340 122.000,66.800 122.180,66.800 122.400 C 66.800 122.620,66.260 122.800,65.600 122.800 C 64.940 122.800,64.400 122.980,64.400 123.200 C 64.400 123.420,63.860 123.600,63.200 123.600 C 62.540 123.600,62.000 123.780,62.000 124.000 C 62.000 124.220,61.640 124.400,61.200 124.400 C 60.760 124.400,60.400 124.580,60.400 124.800 C 60.400 125.020,60.040 125.200,59.600 125.200 C 59.160 125.200,58.800 125.380,58.800 125.600 C 58.800 125.820,58.440 126.000,58.000 126.000 C 57.560 126.000,57.200 126.180,57.200 126.400 C 57.200 126.620,56.840 126.800,56.400 126.800 C 55.960 126.800,55.600 126.980,55.600 127.200 C 55.600 127.420,55.364 127.600,55.075 127.600 C 54.787 127.600,54.164 127.960,53.692 128.400 C 53.220 128.840,52.596 129.200,52.305 129.200 C 52.014 129.200,51.517 129.560,51.200 130.000 C 50.883 130.440,50.343 130.800,50.000 130.800 C 49.657 130.800,49.117 131.160,48.800 131.600 C 48.483 132.040,48.015 132.400,47.760 132.400 C 47.505 132.400,46.555 133.120,45.648 134.000 C 44.741 134.880,43.810 135.600,43.578 135.600 C 43.070 135.600,30.800 147.930,30.800 148.440 C 30.800 148.638,30.080 149.541,29.200 150.448 C 28.320 151.355,27.600 152.317,27.600 152.586 C 27.600 152.856,27.240 153.402,26.800 153.800 C 26.360 154.198,26.000 154.684,26.000 154.879 C 26.000 155.074,25.640 155.620,25.200 156.092 C 24.760 156.564,24.400 157.187,24.400 157.475 C 24.400 157.764,24.220 158.000,24.000 158.000 C 23.780 158.000,23.600 158.345,23.600 158.767 C 23.600 159.188,23.465 159.593,23.300 159.667 C 22.868 159.859,21.200 163.172,21.200 163.838 C 21.200 164.147,21.020 164.400,20.800 164.400 C 20.580 164.400,20.400 164.760,20.400 165.200 C 20.400 165.640,20.220 166.000,20.000 166.000 C 19.780 166.000,19.600 166.360,19.600 166.800 C 19.600 167.240,19.420 167.600,19.200 167.600 C 18.980 167.600,18.800 168.140,18.800 168.800 C 18.800 169.460,18.620 170.000,18.400 170.000 C 18.180 170.000,18.000 170.349,18.000 170.776 C 18.000 171.203,17.820 171.664,17.600 171.800 C 17.380 171.936,17.200 172.566,17.200 173.200 C 17.200 173.834,17.020 174.464,16.800 174.600 C 16.580 174.736,16.400 175.366,16.400 176.000 C 16.400 176.634,16.220 177.264,16.000 177.400 C 15.780 177.536,15.600 178.256,15.600 179.000 C 15.600 179.744,15.420 180.464,15.200 180.600 C 14.980 180.736,14.800 181.827,14.800 183.024 C 14.800 184.221,14.620 185.200,14.400 185.200 C 14.175 185.200,14.000 186.325,14.000 187.776 C 14.000 189.193,13.820 190.464,13.600 190.600 C 13.058 190.935,13.058 208.665,13.600 209.000 C 13.820 209.136,14.000 210.497,14.000 212.024 C 14.000 213.608,14.172 214.800,14.400 214.800 C 14.620 214.800,14.800 215.700,14.800 216.800 C 14.800 217.900,14.980 218.800,15.200 218.800 C 15.420 218.800,15.600 219.419,15.600 220.176 C 15.600 220.933,15.780 221.664,16.000 221.800 C 16.220 221.936,16.400 222.656,16.400 223.400 C 16.400 224.144,16.580 224.864,16.800 225.000 C 17.020 225.136,17.200 225.777,17.200 226.424 C 17.200 227.071,17.380 227.600,17.600 227.600 C 17.820 227.600,18.000 228.140,18.000 228.800 C 18.000 229.460,18.180 230.000,18.400 230.000 C 18.620 230.000,18.800 230.360,18.800 230.800 C 18.800 231.240,18.980 231.600,19.200 231.600 C 19.420 231.600,19.600 232.039,19.600 232.576 C 19.600 233.113,19.780 233.664,20.000 233.800 C 20.220 233.936,20.400 234.397,20.400 234.824 C 20.400 235.251,20.580 235.600,20.800 235.600 C 21.020 235.600,21.200 235.945,21.200 236.367 C 21.200 236.788,21.335 237.193,21.500 237.267 C 21.665 237.340,22.233 238.255,22.763 239.300 C 23.292 240.345,23.877 241.200,24.063 241.200 C 24.248 241.200,24.400 241.560,24.400 242.000 C 24.400 242.440,24.580 242.800,24.800 242.800 C 25.020 242.800,25.200 243.120,25.200 243.512 C 25.200 243.903,25.560 244.483,26.000 244.800 C 26.440 245.117,26.800 245.609,26.800 245.892 C 26.800 246.175,27.340 246.972,28.000 247.663 C 28.660 248.354,29.200 249.070,29.200 249.256 C 29.200 249.441,29.740 250.109,30.400 250.740 C 31.060 251.371,31.600 252.088,31.600 252.333 C 31.600 252.880,43.065 264.400,43.610 264.400 C 43.824 264.400,44.741 265.120,45.648 266.000 C 46.555 266.880,47.479 267.600,47.701 267.600 C 47.924 267.600,48.397 267.916,48.753 268.303 C 49.109 268.689,49.895 269.260,50.500 269.570 C 51.105 269.881,51.600 270.285,51.600 270.468 C 51.600 270.650,51.960 270.800,52.400 270.800 C 52.840 270.800,53.200 270.980,53.200 271.200 C 53.200 271.420,53.436 271.600,53.725 271.600 C 54.013 271.600,54.636 271.960,55.108 272.400 C 55.580 272.840,56.244 273.200,56.583 273.200 C 56.922 273.200,57.200 273.380,57.200 273.600 C 57.200 273.820,57.465 274.000,57.788 274.000 C 58.111 274.000,59.017 274.360,59.800 274.800 C 60.583 275.240,61.579 275.600,62.012 275.600 C 62.445 275.600,62.800 275.780,62.800 276.000 C 62.800 276.220,63.162 276.400,63.605 276.400 C 64.048 276.400,64.768 276.580,65.205 276.800 C 65.642 277.020,66.358 277.380,66.795 277.600 C 67.232 277.820,67.952 278.000,68.395 278.000 C 68.838 278.000,69.200 278.180,69.200 278.400 C 69.200 278.620,69.920 278.800,70.800 278.800 C 71.680 278.800,72.400 278.980,72.400 279.200 C 72.400 279.420,72.940 279.600,73.600 279.600 C 74.260 279.600,74.800 279.780,74.800 280.000 C 74.800 280.220,75.689 280.400,76.776 280.400 C 77.863 280.400,78.864 280.580,79.000 280.800 C 79.136 281.020,80.212 281.200,81.390 281.200 C 82.569 281.200,83.598 281.394,83.677 281.632 C 83.877 282.230,106.733 282.227,107.332 281.628 C 107.567 281.393,108.703 281.200,109.856 281.200 C 111.009 281.200,112.064 281.020,112.200 280.800 C 112.336 280.580,113.157 280.400,114.024 280.400 C 114.891 280.400,115.600 280.220,115.600 280.000 C 115.600 279.780,116.219 279.600,116.976 279.600 C 117.733 279.600,118.464 279.420,118.600 279.200 C 118.736 278.980,119.377 278.800,120.024 278.800 C 120.671 278.800,121.200 278.620,121.200 278.400 C 121.200 278.180,121.639 278.000,122.176 278.000 C 122.713 278.000,123.264 277.820,123.400 277.600 C 123.536 277.380,124.051 277.200,124.544 277.200 C 125.037 277.200,125.615 277.025,125.829 276.811 C 126.042 276.598,126.614 276.362,127.098 276.288 C 127.583 276.214,128.104 276.029,128.256 275.877 C 128.409 275.725,128.863 275.600,129.267 275.600 C 129.670 275.600,130.000 275.420,130.000 275.200 C 130.000 274.980,130.360 274.800,130.800 274.800 C 131.240 274.800,131.601 274.665,131.603 274.500 C 131.607 274.141,133.544 273.200,134.280 273.200 C 134.566 273.200,134.800 273.020,134.800 272.800 C 134.800 272.580,135.160 272.400,135.600 272.400 C 136.040 272.400,136.400 272.220,136.400 272.000 C 136.400 271.780,136.720 271.600,137.112 271.600 C 137.503 271.600,138.083 271.240,138.400 270.800 C 138.717 270.360,139.278 270.000,139.646 270.000 C 140.013 270.000,140.413 269.744,140.533 269.430 C 140.653 269.117,141.393 268.556,142.176 268.185 C 142.959 267.813,143.600 267.349,143.600 267.154 C 143.600 266.959,143.797 266.800,144.039 266.800 C 144.280 266.800,145.295 266.080,146.295 265.200 C 147.295 264.320,148.267 263.600,148.456 263.600 C 149.407 263.600,148.448 262.309,144.900 258.817 C 136.251 250.302,127.902 237.659,125.210 229.000 C 124.937 228.120,124.384 226.500,123.982 225.400 C 123.229 223.339,123.024 222.588,121.644 216.800 C 115.425 190.727,124.466 161.053,144.734 141.016 C 146.951 138.824,148.684 136.951,148.586 136.852 C 148.487 136.754,148.607 136.432,148.852 136.137 C 149.206 135.711,149.081 135.600,148.249 135.600 C 147.568 135.600,146.624 135.040,145.552 134.000 C 144.645 133.120,143.657 132.400,143.355 132.400 C 143.054 132.400,142.582 132.040,142.307 131.600 C 142.032 131.160,141.531 130.800,141.192 130.800 C 140.854 130.800,140.317 130.440,140.000 130.000 C 139.683 129.560,139.103 129.200,138.712 129.200 C 138.320 129.200,138.000 129.020,138.000 128.800 C 138.000 128.580,137.640 128.400,137.200 128.400 C 136.760 128.400,136.400 128.253,136.400 128.074 C 136.400 127.700,133.357 126.004,132.662 125.991 C 132.408 125.986,131.750 125.630,131.200 125.200 C 130.650 124.770,129.890 124.414,129.512 124.409 C 129.134 124.404,128.183 124.040,127.400 123.600 C 126.617 123.160,125.621 122.800,125.188 122.800 C 124.755 122.800,124.400 122.620,124.400 122.400 C 124.400 122.180,123.860 122.000,123.200 122.000 C 122.540 122.000,122.000 121.820,122.000 121.600 C 122.000 121.380,121.471 121.200,120.824 121.200 C 120.177 121.200,119.536 121.020,119.400 120.800 C 119.264 120.580,118.724 120.400,118.200 120.400 C 117.676 120.400,117.136 120.220,117.000 120.000 C 116.864 119.780,115.953 119.600,114.976 119.600 C 113.999 119.600,113.200 119.420,113.200 119.200 C 113.200 118.980,112.401 118.800,111.424 118.800 C 110.447 118.800,109.536 118.620,109.400 118.400 C 109.264 118.180,107.914 118.000,106.400 118.000 C 104.886 118.000,103.536 117.820,103.400 117.600 C 103.249 117.356,100.204 117.200,95.600 117.200 C 90.996 117.200,87.951 117.356,87.800 117.600 M191.800 117.600 C 191.664 117.820,191.823 118.000,192.153 118.000 C 192.483 118.000,192.864 117.820,193.000 117.600 C 193.136 117.380,192.977 117.200,192.647 117.200 C 192.317 117.200,191.936 117.380,191.800 117.600 M210.400 117.600 C 210.400 117.820,210.771 118.000,211.224 118.000 C 211.677 118.000,211.936 117.820,211.800 117.600 C 211.664 117.380,211.293 117.200,210.976 117.200 C 210.659 117.200,210.400 117.380,210.400 117.600 M299.800 117.600 C 299.664 117.820,299.823 118.000,300.153 118.000 C 300.483 118.000,300.864 117.820,301.000 117.600 C 301.136 117.380,300.977 117.200,300.647 117.200 C 300.317 117.200,299.936 117.380,299.800 117.600 M215.800 118.400 C 215.936 118.620,216.317 118.800,216.647 118.800 C 216.977 118.800,217.136 118.620,217.000 118.400 C 216.864 118.180,216.483 118.000,216.153 118.000 C 215.823 118.000,215.664 118.180,215.800 118.400 M291.800 119.200 C 291.664 119.420,291.823 119.600,292.153 119.600 C 292.483 119.600,292.864 119.420,293.000 119.200 C 293.136 118.980,292.977 118.800,292.647 118.800 C 292.317 118.800,291.936 118.980,291.800 119.200 M339.000 121.600 C 339.136 121.820,339.517 122.000,339.847 122.000 C 340.177 122.000,340.336 121.820,340.200 121.600 C 340.064 121.380,339.683 121.200,339.353 121.200 C 339.023 121.200,338.864 121.380,339.000 121.600 M232.400 122.971 C 232.400 123.192,234.819 124.400,235.261 124.400 C 235.448 124.400,235.600 124.220,235.600 124.000 C 235.600 123.780,235.251 123.600,234.824 123.600 C 234.397 123.600,233.936 123.420,233.800 123.200 C 233.561 122.814,232.400 122.624,232.400 122.971 M277.400 124.000 C 277.264 124.220,277.423 124.400,277.753 124.400 C 278.083 124.400,278.464 124.220,278.600 124.000 C 278.736 123.780,278.577 123.600,278.247 123.600 C 277.917 123.600,277.536 123.780,277.400 124.000 M238.200 125.600 C 238.336 125.820,238.717 126.000,239.047 126.000 C 239.377 126.000,239.536 125.820,239.400 125.600 C 239.264 125.380,238.883 125.200,238.553 125.200 C 238.223 125.200,238.064 125.380,238.200 125.600 M266.629 129.809 C 266.205 130.129,265.938 130.471,266.035 130.569 C 266.132 130.666,266.659 130.402,267.206 129.982 C 267.753 129.561,268.020 129.220,267.800 129.222 C 267.580 129.224,267.053 129.488,266.629 129.809 M250.030 132.700 C 250.564 133.305,251.045 133.875,251.100 133.967 C 251.155 134.058,251.301 134.032,251.424 133.909 C 251.657 133.677,249.757 131.600,249.312 131.600 C 249.174 131.600,249.497 132.095,250.030 132.700 M205.846 282.325 C 205.594 282.733,207.825 282.709,208.234 282.300 C 208.398 282.135,207.974 282.000,207.290 282.000 C 206.607 282.000,205.957 282.146,205.846 282.325 " stroke="none" fill="#54dbfb" fill-rule="evenodd"></path><path id="path2" d="M193.200 118.426 C 187.189 119.334,182.303 120.295,180.865 120.853 C 180.350 121.052,178.550 121.583,176.865 122.032 C 175.179 122.482,173.440 123.081,173.000 123.364 C 172.560 123.647,171.480 124.109,170.600 124.390 C 169.720 124.671,168.044 125.418,166.875 126.050 C 165.707 126.683,164.578 127.200,164.367 127.200 C 164.156 127.200,163.312 127.622,162.491 128.137 C 161.671 128.653,159.740 129.864,158.200 130.828 C 156.660 131.793,155.310 132.695,155.200 132.831 C 155.090 132.968,154.236 133.559,153.302 134.144 C 151.612 135.202,143.536 143.074,139.884 147.223 C 136.985 150.516,132.492 157.039,130.533 160.800 C 128.958 163.824,125.200 172.587,125.200 173.236 C 125.200 173.480,124.952 174.246,124.648 174.940 C 123.998 176.422,122.689 181.923,121.778 187.000 C 120.386 194.759,120.593 207.026,122.253 215.000 C 123.441 220.714,124.502 224.816,124.846 225.028 C 125.041 225.149,125.200 225.630,125.200 226.097 C 125.200 228.173,131.156 240.608,134.063 244.600 C 134.704 245.480,136.281 247.640,137.568 249.400 C 140.021 252.754,151.548 264.800,152.305 264.800 C 152.546 264.800,153.024 265.081,153.367 265.424 C 154.092 266.150,157.972 268.800,158.309 268.800 C 158.434 268.800,158.852 269.085,159.237 269.433 C 160.034 270.154,162.559 271.607,165.200 272.863 C 170.022 275.155,171.954 276.000,172.377 276.000 C 172.632 276.000,173.373 276.276,174.025 276.613 C 175.318 277.282,180.652 278.778,186.000 279.972 C 190.478 280.971,200.675 281.704,205.972 281.406 C 212.871 281.019,216.565 280.410,224.200 278.401 C 228.440 277.285,228.935 277.120,229.789 276.538 C 230.223 276.242,230.829 276.000,231.136 276.000 C 232.921 276.000,244.597 269.767,248.800 266.571 C 249.790 265.818,251.545 264.546,252.700 263.744 C 253.855 262.943,254.800 262.151,254.800 261.986 C 254.800 261.821,255.079 261.578,255.421 261.447 C 255.777 261.311,255.937 261.378,255.797 261.605 C 255.663 261.822,255.743 262.000,255.976 262.000 C 256.209 262.000,256.400 261.460,256.400 260.800 C 256.400 260.140,256.210 259.600,255.977 259.600 C 255.343 259.600,253.178 257.150,252.733 255.929 C 252.501 255.294,251.865 254.692,251.171 254.450 C 250.527 254.225,250.000 253.859,250.000 253.636 C 250.000 253.413,249.230 252.279,248.288 251.116 C 246.037 248.335,242.134 242.760,241.593 241.554 C 241.358 241.029,240.540 239.520,239.775 238.200 C 239.011 236.880,238.191 235.350,237.953 234.800 C 237.714 234.250,237.158 232.990,236.715 232.000 C 230.032 217.056,228.470 197.425,232.566 179.854 C 233.123 177.463,233.732 175.303,233.920 175.054 C 234.107 174.804,234.491 173.790,234.773 172.800 C 235.055 171.810,235.642 170.280,236.077 169.400 C 236.513 168.520,237.226 166.720,237.663 165.400 C 238.100 164.080,238.690 162.818,238.975 162.595 C 239.260 162.372,239.878 161.382,240.348 160.395 C 241.760 157.427,245.380 151.882,247.788 149.000 C 248.707 147.900,249.576 146.682,249.719 146.294 C 249.862 145.906,250.425 145.418,250.971 145.211 C 251.516 145.004,252.241 144.295,252.582 143.635 C 253.354 142.141,256.270 139.762,257.146 139.911 C 257.653 139.997,257.620 139.887,257.000 139.419 C 256.560 139.088,255.591 138.318,254.848 137.708 C 252.251 135.580,250.993 134.597,250.357 134.200 C 250.005 133.980,248.327 132.855,246.629 131.700 C 244.931 130.545,243.452 129.600,243.343 129.600 C 243.233 129.600,242.359 129.060,241.400 128.400 C 240.441 127.740,239.474 127.200,239.253 127.200 C 239.031 127.200,237.865 126.660,236.663 126.000 C 235.460 125.340,234.279 124.800,234.039 124.800 C 233.799 124.800,232.459 124.260,231.062 123.600 C 229.665 122.940,228.302 122.400,228.032 122.400 C 227.762 122.400,226.249 121.978,224.671 121.463 C 215.831 118.577,201.412 117.185,193.200 118.426 " stroke="none" fill="#6529e4" fill-rule="evenodd"></path><path id="path3" d="M254.874 141.075 C 253.940 141.851,252.903 143.015,252.569 143.660 C 252.235 144.306,251.516 145.004,250.971 145.211 C 250.425 145.418,249.862 145.906,249.719 146.294 C 249.576 146.682,248.707 147.900,247.788 149.000 C 245.380 151.882,241.760 157.427,240.348 160.395 C 239.878 161.382,239.260 162.372,238.975 162.595 C 238.690 162.818,238.100 164.080,237.663 165.400 C 237.226 166.720,236.513 168.520,236.077 169.400 C 235.642 170.280,235.055 171.810,234.773 172.800 C 234.491 173.790,234.107 174.804,233.920 175.054 C 233.732 175.303,233.123 177.463,232.566 179.854 C 228.470 197.425,230.032 217.056,236.715 232.000 C 237.158 232.990,237.714 234.250,237.953 234.800 C 238.191 235.350,239.011 236.880,239.775 238.200 C 240.540 239.520,241.358 241.029,241.593 241.554 C 242.134 242.760,246.037 248.335,248.288 251.116 C 249.230 252.279,250.000 253.413,250.000 253.636 C 250.000 253.859,250.533 254.227,251.184 254.454 C 251.835 254.681,252.489 255.257,252.638 255.733 C 253.132 257.310,255.718 259.922,256.849 259.986 C 257.636 260.031,268.800 247.608,268.800 246.688 C 268.800 246.591,269.691 245.160,270.779 243.509 C 271.868 241.858,273.173 239.628,273.679 238.554 C 274.186 237.479,274.701 236.510,274.825 236.400 C 274.949 236.290,275.473 235.120,275.990 233.800 C 276.508 232.480,277.058 231.220,277.214 231.000 C 278.354 229.391,280.576 221.736,282.498 212.800 C 283.138 209.826,283.138 189.774,282.498 186.800 C 281.218 180.849,279.973 175.719,279.633 175.000 C 279.426 174.560,279.037 173.480,278.770 172.600 C 278.503 171.720,277.803 169.920,277.213 168.600 C 276.623 167.280,275.894 165.570,275.593 164.800 C 275.292 164.030,274.945 163.310,274.823 163.200 C 274.700 163.090,274.109 162.010,273.509 160.800 C 272.047 157.855,270.474 155.177,269.630 154.200 C 269.251 153.760,268.114 152.230,267.106 150.800 C 265.338 148.294,264.249 147.033,259.943 142.500 C 257.061 139.466,256.875 139.414,254.874 141.075 " stroke="none" fill="#6b0be3" fill-rule="evenodd"></path><path id="path4" d="M190.400 118.429 C 190.400 118.716,191.157 118.766,192.700 118.579 C 195.791 118.204,195.850 118.000,192.867 118.000 C 191.379 118.000,190.400 118.170,190.400 118.429 M212.400 118.810 C 216.975 119.691,217.200 119.709,217.200 119.200 C 217.200 118.980,216.390 118.800,215.400 118.800 C 214.410 118.800,213.600 118.620,213.600 118.400 C 213.600 118.172,212.526 118.017,211.100 118.039 L 208.600 118.078 212.400 118.810 M185.600 119.200 C 185.600 119.420,186.061 119.600,186.624 119.600 C 187.204 119.600,187.540 119.427,187.400 119.200 C 187.264 118.980,186.803 118.800,186.376 118.800 C 185.949 118.800,185.600 118.980,185.600 119.200 M182.800 120.000 C 182.800 120.469,183.107 120.469,184.200 120.000 C 184.909 119.695,184.875 119.653,183.900 119.628 C 183.295 119.613,182.800 119.780,182.800 120.000 M219.400 120.000 C 220.511 120.478,221.295 120.478,221.000 120.000 C 220.864 119.780,220.268 119.613,219.676 119.628 C 218.715 119.653,218.686 119.693,219.400 120.000 M223.762 119.938 C 223.946 120.236,223.719 120.402,223.124 120.406 C 222.275 120.412,222.791 121.173,223.657 121.194 C 224.147 121.206,224.363 120.024,223.921 119.751 C 223.652 119.585,223.589 119.659,223.762 119.938 M179.600 120.800 C 179.600 121.301,180.024 121.301,180.800 120.800 C 181.285 120.486,181.228 120.411,180.500 120.406 C 180.005 120.403,179.600 120.580,179.600 120.800 M176.801 121.700 C 176.800 122.081,177.572 122.040,178.600 121.604 C 179.241 121.332,179.143 121.278,178.101 121.333 C 177.386 121.370,176.801 121.535,176.801 121.700 M225.335 121.677 C 226.140 121.970,226.599 121.961,226.915 121.645 C 227.242 121.318,226.940 121.208,225.780 121.232 C 224.218 121.263,224.213 121.268,225.335 121.677 M230.800 123.499 C 230.800 123.647,232.611 124.369,234.100 124.815 C 234.748 125.009,235.200 124.991,235.200 124.772 C 235.200 124.567,234.829 124.400,234.376 124.400 C 233.923 124.400,233.652 124.239,233.774 124.042 C 233.896 123.845,233.277 123.615,232.398 123.531 C 231.519 123.447,230.800 123.433,230.800 123.499 M165.854 126.202 C 165.224 126.531,164.504 126.801,164.254 126.802 C 164.004 126.803,163.260 127.268,162.600 127.835 L 161.400 128.866 162.662 128.033 C 163.356 127.575,164.093 127.200,164.300 127.200 C 164.771 127.200,167.200 126.003,167.200 125.771 C 167.200 125.519,167.108 125.549,165.854 126.202 M238.083 126.400 C 238.184 126.730,238.610 127.067,239.031 127.148 C 239.452 127.230,240.549 127.815,241.470 128.448 C 242.391 129.082,243.278 129.600,243.441 129.600 C 243.604 129.600,244.108 129.915,244.562 130.300 C 245.348 130.968,245.361 130.968,244.838 130.293 C 244.536 129.904,243.685 129.298,242.945 128.947 C 242.205 128.596,241.600 128.149,241.600 127.954 C 241.600 127.759,241.330 127.600,241.000 127.600 C 240.670 127.600,240.400 127.420,240.400 127.200 C 240.400 126.980,240.076 126.800,239.680 126.800 C 239.284 126.800,238.722 126.575,238.430 126.300 C 238.002 125.896,237.935 125.916,238.083 126.400 M158.656 129.999 C 158.247 130.412,157.344 131.020,156.650 131.349 C 155.956 131.679,154.941 132.450,154.394 133.062 C 153.475 134.092,153.764 133.980,155.395 132.676 C 155.618 132.498,156.880 131.643,158.200 130.777 C 159.520 129.911,160.330 129.213,160.000 129.225 C 159.670 129.237,159.065 129.586,158.656 129.999 M246.400 131.367 C 246.400 131.444,246.871 131.817,247.447 132.194 C 248.118 132.634,248.433 132.700,248.326 132.378 C 248.179 131.937,246.400 131.003,246.400 131.367 M249.600 133.808 C 249.600 133.881,250.158 134.220,250.840 134.560 C 251.778 135.028,251.970 135.045,251.627 134.633 C 251.219 134.141,249.600 133.482,249.600 133.808 M151.570 135.100 L 150.600 136.200 151.800 135.200 C 152.460 134.650,153.075 134.155,153.167 134.100 C 153.258 134.045,153.155 134.000,152.936 134.000 C 152.718 134.000,152.103 134.495,151.570 135.100 M146.690 139.123 C 125.029 159.332,115.204 189.802,121.644 216.800 C 123.024 222.588,123.229 223.339,123.982 225.400 C 124.384 226.500,124.937 228.120,125.210 229.000 C 127.000 234.756,132.496 244.305,137.982 251.187 C 141.102 255.102,148.225 262.400,148.926 262.400 C 149.416 262.400,148.840 261.746,143.859 256.640 C 141.691 254.418,138.862 251.160,137.572 249.400 C 136.283 247.640,134.704 245.480,134.063 244.600 C 131.156 240.608,125.200 228.173,125.200 226.097 C 125.200 225.630,125.041 225.149,124.846 225.028 C 124.502 224.816,123.441 220.714,122.253 215.000 C 120.593 207.026,120.386 194.759,121.778 187.000 C 122.689 181.923,123.998 176.422,124.648 174.940 C 124.952 174.246,125.200 173.480,125.200 173.236 C 125.200 172.587,128.958 163.824,130.533 160.800 C 131.783 158.400,132.807 156.807,136.574 151.400 C 138.441 148.721,141.096 145.712,145.217 141.605 C 150.383 136.457,151.419 134.711,146.690 139.123 M255.200 261.600 C 254.870 261.813,254.780 261.993,255.000 262.000 C 255.220 262.007,255.130 262.187,254.800 262.400 C 254.423 262.644,254.381 262.790,254.686 262.794 C 254.953 262.797,255.365 262.440,255.600 262.000 C 256.084 261.096,256.043 261.055,255.200 261.600 M252.599 263.711 C 250.748 265.017,248.734 266.800,249.111 266.800 C 249.297 266.800,249.836 266.440,250.308 266.000 C 250.780 265.560,251.277 265.200,251.412 265.200 C 251.547 265.200,251.923 264.934,252.248 264.609 C 252.573 264.284,253.144 263.847,253.516 263.639 C 253.889 263.430,254.105 263.171,253.996 263.063 C 253.887 262.954,253.259 263.246,252.599 263.711 M156.532 268.133 C 156.679 268.536,156.800 268.941,156.800 269.033 C 156.800 269.125,157.191 269.200,157.669 269.200 C 158.146 269.200,158.911 269.515,159.369 269.900 C 160.199 270.599,160.199 270.599,159.438 269.700 C 159.019 269.205,158.493 268.800,158.270 268.800 C 158.046 268.800,157.503 268.485,157.064 268.100 C 156.300 267.431,156.276 267.433,156.532 268.133 M242.820 270.431 C 241.400 271.363,241.218 271.600,241.920 271.600 C 242.404 271.600,242.800 271.420,242.800 271.200 C 242.800 270.980,243.027 270.800,243.304 270.800 C 243.581 270.800,244.032 270.440,244.307 270.000 C 244.582 269.560,244.760 269.214,244.703 269.231 C 244.647 269.248,243.799 269.788,242.820 270.431 M160.943 271.000 C 161.273 271.330,161.770 271.600,162.048 271.600 C 162.331 271.600,162.212 271.342,161.776 271.013 C 160.758 270.242,160.176 270.233,160.943 271.000 M164.000 272.813 C 164.000 273.026,164.360 273.200,164.800 273.200 C 165.240 273.200,165.600 273.380,165.600 273.600 C 165.600 273.820,166.095 273.979,166.700 273.954 C 167.538 273.918,167.610 273.860,167.000 273.711 C 166.560 273.602,166.020 273.381,165.800 273.219 C 165.043 272.661,164.000 272.426,164.000 272.813 M237.000 273.600 C 236.296 273.902,236.335 273.947,237.324 273.972 C 237.976 273.988,238.344 273.832,238.200 273.600 C 238.064 273.380,237.918 273.213,237.876 273.228 C 237.834 273.244,237.440 273.411,237.000 273.600 M170.543 275.800 C 170.873 276.130,171.651 276.392,172.271 276.382 C 173.304 276.366,173.263 276.316,171.800 275.788 C 169.810 275.072,169.815 275.072,170.543 275.800 M231.200 276.000 C 230.253 276.303,230.268 276.322,231.500 276.360 C 232.215 276.382,232.800 276.220,232.800 276.000 C 232.800 275.548,232.612 275.548,231.200 276.000 M177.600 278.382 C 177.600 278.612,178.309 278.800,179.176 278.800 C 180.043 278.800,180.864 278.980,181.000 279.200 C 181.136 279.420,181.732 279.587,182.324 279.572 C 183.339 279.545,183.321 279.515,182.000 279.031 C 179.809 278.230,177.600 277.904,177.600 278.382 M225.000 278.400 C 224.864 278.620,225.134 278.800,225.600 278.800 C 226.066 278.800,226.336 278.620,226.200 278.400 C 226.064 278.180,225.794 278.000,225.600 278.000 C 225.406 278.000,225.136 278.180,225.000 278.400 M221.200 279.200 C 220.712 279.515,220.764 279.589,221.476 279.594 C 221.958 279.597,222.464 279.420,222.600 279.200 C 222.915 278.691,221.988 278.691,221.200 279.200 M183.854 279.913 C 183.757 280.071,184.417 280.252,185.321 280.316 C 187.204 280.448,187.201 280.229,185.316 279.871 C 184.609 279.736,183.951 279.755,183.854 279.913 M218.000 280.000 C 217.155 280.271,217.267 280.326,218.724 280.360 C 219.780 280.385,220.351 280.245,220.200 280.000 C 219.918 279.544,219.424 279.544,218.000 280.000 M213.000 280.800 C 212.048 281.042,212.322 281.115,214.324 281.153 C 215.915 281.183,216.756 281.052,216.600 280.800 C 216.320 280.347,214.779 280.347,213.000 280.800 M194.991 281.615 C 194.908 281.748,197.793 281.886,201.401 281.922 C 205.009 281.958,208.042 281.855,208.142 281.694 C 208.242 281.532,205.357 281.394,201.732 281.387 C 198.106 281.379,195.073 281.482,194.991 281.615 " stroke="none" fill="#5577eb" fill-rule="evenodd"></path></g></svg>