<?xml version="1.0"?>
<svg xmlns="http://www.w3.org/2000/svg" viewBox="0 0 50 50">
    <path d="M 4 12 C 1.794 12 0 13.794 0 16 L 0 34 C 0 36.206 1.794 38 4 38 L 46 38 C 48.206 38 50 36.206 50 34 L 50 16 C 50 13.794 48.206 12 46 12 L 4 12 z M 33.523438 22.308594 C 35.218438 22.308594 36.296875 23.445344 36.296875 25.277344 C 36.297875 27.113344 35.219438 28.251953 33.523438 28.251953 C 31.820438 28.251953 30.742188 27.113344 30.742188 25.277344 C 30.742188 23.445344 31.832438 22.308594 33.523438 22.308594 z M 6.9121094 22.462891 L 9.5429688 22.462891 C 10.667969 22.462891 11.330078 22.992187 11.330078 23.867188 C 11.330078 24.472188 10.877297 24.984406 10.279297 25.066406 L 10.279297 25.140625 C 11.017297 25.179625 11.589844 25.753656 11.589844 26.472656 C 11.589844 27.461656 10.826141 28.099609 9.6191406 28.099609 L 6.9121094 28.099609 L 6.9121094 22.462891 z M 13.015625 22.462891 L 14.449219 22.462891 L 14.449219 26.001953 C 14.449219 26.657953 14.808312 27.044922 15.445312 27.044922 C 16.082313 27.044922 16.4375 26.657953 16.4375 26.001953 L 16.4375 22.462891 L 17.871094 22.462891 L 17.871094 26.152344 C 17.871094 27.418344 16.910313 28.251953 15.445312 28.251953 C 13.980312 28.251953 13.015625 27.418344 13.015625 26.152344 L 13.015625 22.462891 z M 19.294922 22.462891 L 23.978516 22.462891 L 23.978516 23.613281 L 22.349609 23.613281 L 22.349609 28.097656 L 20.919922 28.097656 L 20.919922 23.613281 L 19.294922 23.613281 L 19.294922 22.462891 z M 25.089844 22.462891 L 29.773438 22.462891 L 29.773438 23.613281 L 28.144531 23.613281 L 28.144531 28.097656 L 26.714844 28.097656 L 26.714844 23.613281 L 25.089844 23.613281 L 25.089844 22.462891 z M 37.761719 22.462891 L 38.90625 22.462891 L 41.253906 25.634766 L 41.328125 25.634766 L 41.328125 22.462891 L 42.6875 22.462891 L 42.6875 28.099609 L 41.550781 28.099609 L 39.195312 24.896484 L 39.119141 24.896484 L 39.119141 28.099609 L 37.761719 28.099609 L 37.761719 22.462891 z M 8.3476562 23.472656 L 8.3476562 24.757812 L 9.1054688 24.757812 C 9.6284687 24.758813 9.9335938 24.516188 9.9335938 24.117188 C 9.9335938 23.715187 9.6481562 23.472656 9.1601562 23.472656 L 8.3476562 23.472656 z M 33.523438 23.496094 C 32.730438 23.496094 32.203125 24.191344 32.203125 25.277344 C 32.203125 26.367344 32.723437 27.0625 33.523438 27.0625 C 34.316437 27.0625 34.839844 26.367344 34.839844 25.277344 C 34.840844 24.191344 34.312438 23.496094 33.523438 23.496094 z M 8.3476562 25.630859 L 8.3476562 27.087891 L 9.2148438 27.087891 C 9.8088437 27.087891 10.132812 26.825609 10.132812 26.349609 C 10.132813 25.888609 9.7990781 25.630859 9.2050781 25.630859 L 8.3476562 25.630859 z"/>
</svg>
